<?xml version="1.0" standalone="no"?>
<!DOCTYPE svg PUBLIC "-//W3C//DTD SVG 20010904//EN"
 "http://www.w3.org/TR/2001/REC-SVG-20010904/DTD/svg10.dtd">
<svg version="1.0" xmlns="http://www.w3.org/2000/svg"
 width="192.000000pt" height="192.000000pt" viewBox="0 0 192.000000 192.000000"
 preserveAspectRatio="xMidYMid meet">

<g transform="translate(0.000000,192.000000) scale(0.100000,-0.100000)"
fill="#000000" stroke="none">
<path d="M450 1540 c0 -89 37 -132 185 -215 57 -32 116 -74 138 -98 l39 -42
-7 40 c-10 60 -39 91 -145 160 -105 68 -161 119 -180 165 -17 42 -30 37 -30
-10z"/>
<path d="M763 1383 c-26 -5 -22 -21 15 -63 29 -32 42 -38 42 -17 0 18 30 44
55 49 17 3 15 6 -14 21 -33 17 -53 19 -98 10z"/>
<path d="M430 1353 c0 -82 148 -151 231 -107 l34 17 -82 18 c-86 19 -132 38
-164 70 -17 17 -19 17 -19 2z"/>
<path d="M674 1230 c-22 -9 -64 -56 -64 -71 0 -5 9 0 20 11 11 11 24 20 28 20
18 0 43 -39 85 -135 25 -55 51 -101 59 -103 8 -1 24 20 41 53 30 61 35 79 13
50 -13 -18 -14 -18 -21 6 -4 13 -21 53 -38 88 -23 49 -37 66 -63 77 -18 8 -35
14 -36 13 -2 0 -13 -4 -24 -9z"/>
<path d="M960 1226 c-25 -14 -77 -93 -67 -102 2 -3 10 9 17 25 14 34 34 45 60
31 31 -17 40 -67 40 -230 0 -135 2 -159 16 -164 25 -10 42 -7 58 10 13 13 16
42 16 162 0 81 -5 165 -10 186 -16 70 -79 110 -130 82z"/>
<path d="M1090 1204 c0 -1 7 -18 15 -37 l15 -36 55 6 c64 7 105 -13 105 -51 0
-35 -20 -46 -94 -53 l-66 -6 0 -34 0 -34 97 2 c88 1 98 0 114 -20 10 -12 15
-30 12 -39 -12 -34 -35 -42 -130 -42 -85 0 -93 -2 -93 -19 0 -11 -3 -26 -6
-35 -5 -14 7 -16 97 -16 124 0 162 15 192 73 17 33 18 44 8 77 -6 21 -24 49
-40 63 -26 21 -28 28 -24 73 5 43 2 54 -21 81 -35 41 -80 55 -166 51 -38 -2
-70 -4 -70 -4z"/>
<path d="M481 1175 c27 -27 109 -48 109 -27 0 6 2 16 5 24 4 9 -6 13 -37 13
-24 1 -56 5 -73 9 l-30 8 26 -27z"/>
<path d="M635 1107 c-12 -17 -15 -52 -15 -159 0 -125 2 -140 20 -158 23 -23
39 -25 63 -7 13 9 17 32 19 102 l3 90 24 -53 c59 -131 156 -122 209 21 26 69
29 158 7 177 -22 18 -28 9 -80 -105 -24 -54 -50 -105 -58 -113 -34 -33 -64 8
-134 180 -18 45 -38 54 -58 25z"/>
</g>
</svg>
